<svg viewBox="0 0 359 359" fill="none" xmlns="http://www.w3.org/2000/svg">
<path d="M0.200012 76.8C0.200012 56.4314 8.29142 36.897 22.6942 22.4942C37.097 8.09141 56.6314 0 77 0H281.8C302.169 0 321.703 8.09141 336.106 22.4942C350.509 36.897 358.6 56.4314 358.6 76.8V281.6C358.6 301.969 350.509 321.503 336.106 335.906C321.703 350.309 302.169 358.4 281.8 358.4H77C56.6314 358.4 37.097 350.309 22.6942 335.906C8.29142 321.503 0.200012 301.969 0.200012 281.6V76.8ZM179.4 51.2C165.821 51.2 152.798 56.5943 143.196 66.1961C133.594 75.798 128.2 88.8209 128.2 102.4C128.2 115.979 133.594 129.002 143.196 138.604C152.798 148.206 165.821 153.6 179.4 153.6C192.979 153.6 206.002 148.206 215.604 138.604C225.206 129.002 230.6 115.979 230.6 102.4C230.6 88.8209 225.206 75.798 215.604 66.1961C206.002 56.5943 192.979 51.2 179.4 51.2ZM243.4 179.2H115.4C105.216 179.2 95.4485 183.246 88.2471 190.447C81.0457 197.648 77 207.416 77 217.6C77 246.17 88.7504 269.056 108.027 284.544C126.997 299.776 152.443 307.2 179.4 307.2C206.357 307.2 231.803 299.776 250.773 284.544C270.024 269.056 281.8 246.17 281.8 217.6C281.8 207.416 277.754 197.648 270.553 190.447C263.352 183.246 253.584 179.2 243.4 179.2Z" fill="#B99653"/>
</svg>
